<?xml version="1.0" standalone="no"?>
<!DOCTYPE svg PUBLIC "-//W3C//DTD SVG 20010904//EN"
 "http://www.w3.org/TR/2001/REC-SVG-20010904/DTD/svg10.dtd">
<svg version="1.0" xmlns="http://www.w3.org/2000/svg"
 width="240.000000pt" height="240.000000pt" viewBox="0 0 240.000000 240.000000"
 preserveAspectRatio="xMidYMid meet">
<metadata>
Created by potrace 1.14, written by Peter Selinger 2001-2017
</metadata>
<g transform="translate(0.000000,240.000000) scale(0.100000,-0.100000)"
fill="#000000" stroke="none">
<path d="M1232 1874 c-153 -50 -276 -157 -340 -296 -12 -27 -23 -48 -25 -48
-1 0 -30 9 -63 20 -78 24 -178 21 -252 -8 -233 -90 -323 -370 -186 -579 42
-65 117 -125 191 -154 58 -21 63 -22 688 -22 629 0 630 0 681 22 206 89 232
372 47 502 -16 11 -22 29 -26 79 -18 218 -157 398 -366 477 -97 37 -248 40
-349 7z"/>
</g>
</svg>
